<svg width="79" height="78" viewBox="0 0 79 78" fill="none" xmlns="http://www.w3.org/2000/svg">
<path d="M65.1 55.25V65C65.1 65.862 64.7571 66.6886 64.1467 67.2981C63.5362 67.9076 62.7083 68.25 61.845 68.25H13.02C12.1567 68.25 11.3288 67.9076 10.7184 67.2981C10.108 66.6886 9.76501 65.862 9.76501 65V32.5C9.76501 31.638 10.108 30.8114 10.7184 30.2019C11.3288 29.5924 12.1567 29.25 13.02 29.25H61.845C62.7083 29.25 63.5362 29.5924 64.1467 30.2019C64.7571 30.8114 65.1 31.638 65.1 32.5V42.25" stroke="black" stroke-width="4" stroke-linecap="round" stroke-linejoin="round"/>
<path d="M56.0185 29.25L61.845 20.93L45.863 9.75L32.1594 29.25H56.0185ZM29.588 13L18.1629 29.25H32.1594L39.06 19.5L29.588 13ZM68.355 42.25H52.08C51.2167 42.25 50.3888 42.5924 49.7784 43.2019C49.1679 43.8114 48.825 44.638 48.825 45.5V52C48.825 52.862 49.1679 53.6886 49.7784 54.2981C50.3888 54.9076 51.2167 55.25 52.08 55.25H68.355V42.25Z" stroke="black" stroke-width="4" stroke-linecap="round" stroke-linejoin="round"/>
</svg>
