<svg width="79" height="78" viewBox="0 0 79 78" fill="none" xmlns="http://www.w3.org/2000/svg">
<path d="M19.2865 44.1025L10.205 57.07L20.0677 59.995L26.1871 68.25L35.3662 55.185" stroke="black" stroke-width="4" stroke-linecap="round" stroke-linejoin="round"/>
<path d="M59.7135 44.1025L68.795 57.07L58.9323 59.995L52.8129 68.25L43.6339 55.185" stroke="black" stroke-width="4" stroke-linecap="round" stroke-linejoin="round"/>
<path d="M63.1964 32.5C63.1964 34.97 61.0155 37.05 60.2994 39.26C59.5833 41.47 60.0716 44.4925 58.6719 46.41C57.2723 48.3275 54.2777 48.75 52.52 50.18C50.7623 51.61 49.265 54.275 46.9865 55.0225C44.708 55.77 42.1365 54.34 39.6627 54.34C37.1889 54.34 34.5524 55.7375 32.339 55.0225C30.1256 54.3075 28.7259 51.545 26.8055 50.18C24.885 48.815 21.8904 48.3275 20.4908 46.41C19.0911 44.4925 19.6119 41.535 18.8633 39.26C18.1146 36.985 15.8036 34.97 15.8036 32.5C15.8036 30.03 17.9844 27.95 18.7005 25.74C19.4166 23.53 18.9284 20.5075 20.328 18.59C21.7277 16.6725 24.7223 16.25 26.6427 14.82C28.5632 13.39 29.735 10.725 32.1762 9.9775C34.6175 9.23 37.0262 10.66 39.5 10.66C41.9738 10.66 44.6103 9.2625 46.8237 9.9775C49.0371 10.6925 50.4368 13.455 52.52 14.82C54.6032 16.185 57.435 16.6725 58.8347 18.59C60.2343 20.5075 59.7135 23.465 60.4622 25.74C61.2108 28.015 63.1964 30.03 63.1964 32.5Z" stroke="black" stroke-width="4" stroke-linecap="round" stroke-linejoin="round"/>
<path d="M32.99 32.5L37.3191 37.375L46.01 27.625" stroke="black" stroke-width="4" stroke-linecap="round" stroke-linejoin="round"/>
</svg>
