<svg width="48" height="49" viewBox="0 0 48 49" fill="none" xmlns="http://www.w3.org/2000/svg">
<path d="M42 42.5L31.6 32.1M36 21.5C36 24.4667 35.1203 27.3668 33.4721 29.8336C31.8238 32.3003 29.4811 34.2229 26.7403 35.3582C23.9994 36.4935 20.9834 36.7906 18.0737 36.2118C15.1639 35.633 12.4912 34.2044 10.3934 32.1066C8.29562 30.0088 6.86701 27.3361 6.28823 24.4264C5.70945 21.5166 6.0065 18.5006 7.14181 15.7597C8.27713 13.0189 10.1997 10.6762 12.6665 9.02796C15.1332 7.37973 18.0333 6.5 21 6.5C24.9783 6.5 28.7936 8.08035 31.6066 10.8934C34.4197 13.7064 36 17.5218 36 21.5Z" stroke="#030303" stroke-width="4" stroke-linecap="round" stroke-linejoin="round"/>
</svg>
